<?xml version="1.0" standalone="no"?><!DOCTYPE svg PUBLIC "-//W3C//DTD SVG 1.1//EN" "http://www.w3.org/Graphics/SVG/1.1/DTD/svg11.dtd"><svg t="1536582723066" class="icon" style="" viewBox="0 0 2569 1024" version="1.1" xmlns="http://www.w3.org/2000/svg" p-id="4071" xmlns:xlink="http://www.w3.org/1999/xlink" width="501.7578125" height="200"><defs><style type="text/css"></style></defs><path d="M1270.645 485.562v229.5c0 28.125 1.125 59.625 2.813 95.062h-55.125c1.687-33.188 2.813-65.25 2.813-95.063v-179.438c-29.813 28.125-62.438 54.563-97.313 79.313-9-15.75-19.125-30.938-31.5-45 29.813-15.75 65.25-43.313 106.875-83.25 41.063-39.375 67.5-70.875 77.625-93.375 15.75 12.375 37.125 23.063 63.562 31.5-22.5 14.063-45 34.313-69.75 60.75zM1317.895 324.687c0 19.125 1.125 39.375 2.813 60.75h-57.937c1.687-21.375 2.813-41.063 2.813-60.75h-73.688c-29.812 0-59.625 1.125-89.437 2.813v-47.25c29.812 1.688 59.625 2.813 89.437 2.813h73.688c0-28.125-1.125-52.875-2.813-73.687h60.75c-3.375 21.375-5.063 45.563-5.063 73.687h133.875v-79.875h55.125c-1.688 21.375-2.813 47.25-2.813 79.313h105.188c31.5 0 59.063-1.125 81.563-2.813v47.25c-23.063-1.688-50.063-2.813-81.563-2.813h-105.188c0 15.75 1.125 36 2.813 60.75h-55.125v-60.187h-134.438zM1473.707 479.937v73.688c19.125-10.688 42.75-28.688 69.75-54 27-25.313 47.25-47.813 59.062-67.5 15.75 14.063 34.875 26.438 57.938 37.125-21.375 12.375-42.188 28.688-63.563 48.938-21.375 20.25-62.438 51.188-123.75 93.375v108.563c0 19.125 11.25 29.25 34.313 29.25h81.562c17.437 0 29.812-3.938 37.125-11.813 6.75-7.875 12.938-27.563 18.563-59.063 17.438 12.375 36 20.25 55.125 23.625-12.375 42.188-24.188 67.5-35.438 76.5-11.25 9-28.687 12.938-51.187 12.938h-129.375c-40.5 0-60.75-14.063-60.75-42.188v-108c-17.438 10.688-48.375 27-92.25 50.063-9-15.75-21.375-30.938-37.125-45 37.125-10.688 79.875-30.938 129.375-60.75v-105.75c0-29.813-1.125-55.125-2.813-76.5h55.125c-1.125 21.375-1.687 46.688-1.687 76.5zM1938.895 409.062c-7.875 17.438-18 40.5-30.375 68.625 24.75 0 42.188-1.125 52.875-2.813v39.375c-23.063-1.688-47.25-2.813-73.688-2.813v79.313c23.063 0 45-1.125 65.813-2.813v39.375c-24.75-1.688-47.25-2.813-68.625-2.813-1.687 37.125-8.438 69.188-19.688 97.313-11.25 28.125-29.25 59.625-54 95.063-10.688-10.688-24.75-18.563-42.188-23.625 24.75-24.75 43.313-51.75 55.125-81.563 12.375-29.813 19.125-59.063 21.375-87.188-21.375 0-45 1.125-71.438 2.813v-39.375c24.75 1.688 48.938 2.813 73.688 2.813v-78.75c-31.5 0-57.375 1.125-76.5 2.813v-39.375c23.063 1.687 43.875 2.813 63.563 2.813h34.313c10.688-24.75 19.125-47.25 26.438-68.625 6.75-21.375 12.375-41.063 15.75-60.75 17.437 9 33.188 14.063 47.25 15.75-5.063 11.813-11.813 27-19.688 44.438zM1889.957 298.25c23.062 0 46.688-1.125 71.438-2.813v39.375c-14.063-1.688-37.688-2.813-71.438-2.813h-57.938c-14.063 0-34.313 1.125-60.75 2.813v-39.375c19.125 1.688 39.375 2.813 60.75 2.813h57.938zM1861.27 435.5c-14.063 9-26.438 16.875-37.125 23.625-14.063-29.812-29.25-55.125-45-76.5 14.063-5.063 24.75-12.375 31.5-21.375 12.938 14.063 29.25 38.813 50.625 74.25zM1897.832 269c-9 3.375-21.938 10.688-39.375 21.375-5.063-17.438-18.563-41.063-39.375-71.437 14.063-6.75 25.313-14.063 34.313-21.375 20.813 30.375 36 54 44.438 71.438zM2140.832 282.5v121.5c0 37.125 1.688 76.5 5.063 118.688 3.375 37.125 12.375 77.625 26.438 122.625 14.063 45 33.188 82.125 57.938 111.938-14.063 5.062-28.125 14.062-42.188 26.437-19.125-34.875-34.875-70.313-46.125-105.75-11.25-34.875-19.125-67.5-22.5-97.313-5.063-34.875-9-75.375-10.688-121.5-1.688-45.563-2.813-101.813-2.813-168.75l-31.5 5.063-5.063 426.938c12.375-5.063 21.375-9.562 26.438-12.938-3.375-9-7.875-20.25-12.937-34.313 6.75-3.375 16.875-7.875 29.25-12.938 15.75 40.5 28.125 72 37.125 95.063-10.688 5.062-21.375 11.25-31.5 18.563l-10.688-31.5c-15.75 6.75-28.687 12.938-38.25 18.563-9.563 5.062-20.813 12.375-33.188 21.375-9-15.75-16.875-28.125-23.625-37.125 17.438-9 26.438-23.625 26.438-45l5.063-401.063c-7.313 0-16.875 1.125-29.25 2.813v131.625c0 40.5-1.125 85.5-2.813 134.438-1.687 35.437-7.312 72-16.875 110.813-9.563 38.813-25.875 78.188-48.938 118.687-12.375-12.375-25.313-21.375-39.375-26.437 24.75-31.5 42.188-67.5 52.875-108 10.688-40.5 16.875-82.688 18.562-126.563v-145.125c0-48.937-1.125-88.875-2.813-118.688 21.375 1.688 46.688-1.125 76.5-7.875 29.813-6.75 61.313-17.438 95.063-31.5 5.063 12.375 14.063 26.438 26.438 42.188-16.313 1.688-27 3.375-32.063 5.063zM2296.082 308.937c23.063 0 48.375-1.125 76.5-2.813v39.375c-12.375-1.688-37.688-2.813-76.5-2.813h-76.5c-21.375 0-40.5 1.125-57.937 2.813v-39.375c23.062 1.688 45 2.813 65.813 2.813h68.625zM2326.457 416.937c-9.563 23.062-18 43.313-25.313 60.75 21.375 0 43.313-1.125 65.813-2.813v39.375c-28.125-1.688-53.438-2.813-76.5-2.813v92.25c29.813 0 55.125-1.125 76.5-2.813v39.375c-21.375-1.688-46.688-2.812-76.5-2.812v95.063c0 23.062 1.125 50.062 2.813 81.563h-47.25c1.687-31.5 2.813-59.625 2.813-84.375v-92.25c-23.063 0-42.188 1.125-57.938 2.812v-39.375c5.063 1.687 24.75 2.813 57.938 2.813v-91.688c-29.813 0-59.063 1.125-87.188 2.813v-39.375c26.438 1.687 59.625 2.813 100.125 2.813 6.75-19.125 13.5-38.25 19.688-56.813 6.188-18.563 11.813-41.625 16.875-69.75 10.688 7.313 28.125 14.063 52.875 21.375-6.75 6.188-15.188 20.813-24.75 43.875zM2209.457 356.187c23.062 38.813 37.688 65.813 45 81.563-10.688 5.063-23.063 12.937-37.125 23.625-12.375-31.5-26.438-59.063-42.188-81.563l21.375-10.688 12.938-12.938zM2309.582 266.75c-14.063 9-26.438 17.438-37.125 26.438-14.063-21.375-33.188-45-57.938-71.437 12.375-6.75 23.625-15.75 34.313-26.438 26.438 29.813 46.687 53.438 60.75 71.437zM381.894 391.062c65.812-198.563 223.875-247.5 223.875-247.5s-89.438-28.688-205.875-36.563c-92.25-6.188-217.125 13.5-217.125 13.5s-32.063 343.688 165.938 576.563c1.688 2.25 4.5 5.063 6.75 7.313 0 0 0 0 0-0.563-1.688-65.25-11.813-199.125 26.438-312.75v0zM1004.582 689.75c-9-96.188-36.563-194.063-36.563-194.063s-53.438 141.188-222.188 208.125c-122.625 48.938-268.875 54-338.063 52.312 232.313 196.312 583.313 172.125 583.313 172.125s23.063-139.5 13.5-238.5v0zM377.957 720.688c0 0 302.063 47.25 481.5-131.625 180-178.875 131.625-468.563 131.625-468.563s-317.813-41.625-480.938 120.375c-162.562 162.563-132.188 479.813-132.188 479.813v0zM377.957 720.688z" p-id="4072" fill="#1296db"></path></svg>