<?xml version="1.0" standalone="no"?><!DOCTYPE svg PUBLIC "-//W3C//DTD SVG 1.1//EN" "http://www.w3.org/Graphics/SVG/1.1/DTD/svg11.dtd"><svg t="1537685413487" class="icon" style="" viewBox="0 0 1024 1024" version="1.1" xmlns="http://www.w3.org/2000/svg" p-id="1886" xmlns:xlink="http://www.w3.org/1999/xlink" width="200" height="200"><defs><style type="text/css"></style></defs><path d="M851.1 942.7H167.3c-40.3 0-73.1-32.8-73.1-73.1V439c0-16.6 13.4-30 30-30s30 13.4 30 30v430.6c0 7.1 6 13.1 13.1 13.1h683.8c7.1 0 13.1-6 13.1-13.1V439c0-16.6 13.4-30 30-30s30 13.4 30 30v430.6c0 40.4-32.8 73.1-73.1 73.1z" fill="#1296db" p-id="1887"></path><path d="M890.2 455.6c-6.2 0-12.4-2.2-17.4-6.7L545.6 151.8c-23.1-21-57.9-21-81 0L137.4 448.9c-10.6 9.6-26.9 8.8-36.5-1.8-9.6-10.6-8.8-26.9 1.8-36.5l327.2-297.1c20.6-18.7 47.3-29.1 75.2-29.1 27.9 0 54.6 10.3 75.2 29.1l327.2 297.1c10.6 9.6 11.3 25.9 1.8 36.5-5.1 5.6-12.1 8.5-19.1 8.5zM723.9 666.9H300.7c-14.3 0-25.8-11.6-25.8-25.8 0-14.3 11.6-25.8 25.8-25.8h423.2c14.3 0 25.8 11.6 25.8 25.8 0 14.3-11.6 25.8-25.8 25.8z" fill="#1296db" p-id="1888"></path></svg>